<?xml version="1.0" encoding="UTF-8"?>
<svg width="400px" height="198px" viewBox="0 0 400 198" version="1.1" xmlns="http://www.w3.org/2000/svg" xmlns:xlink="http://www.w3.org/1999/xlink">
    <title>编组 6</title>
    <defs>
        <filter id="filter-1">
            <feColorMatrix in="SourceGraphic" type="matrix" values="0 0 0 0 0.788235 0 0 0 0 0.168627 0 0 0 0 0.192157 0 0 0 1.000000 0"></feColorMatrix>
        </filter>
    </defs>
    <g id="页面-1" stroke="none" stroke-width="1" fill="none" fill-rule="evenodd">
        <g id="编组-3备份-4" transform="translate(-87.000000, -87.000000)">
            <g id="编组-6" transform="translate(87.000000, 87.000000)">
                <path d="M7.17896866,197.383215 L9.95955511,184.69363 L17.8463094,184.69363 L20.6268959,197.383215 L27.8058645,197.383215 L17.9474216,158 L13.9029323,158.050556 L9.80788675,158 L-1.47437618e-13,197.383215 L7.17896866,197.383215 Z M16.6835187,179.385238 L11.1223458,179.385238 L13.9029323,166.59454 L16.6835187,179.385238 Z M57.1284125,197.383215 L57.1284125,158 L31.8503539,158 L31.8503539,197.383215 L57.1284125,197.383215 Z M50.0505561,192.074823 L38.9282103,192.074823 L38.9282103,163.308392 L50.0505561,163.308392 L50.0505561,192.074823 Z M86.4509606,197.383215 L86.4509606,158 L61.1729019,158 L61.1729019,197.383215 L86.4509606,197.383215 Z M79.3731041,192.074823 L68.2507583,192.074823 L68.2507583,163.308392 L79.3731041,163.308392 L79.3731041,192.074823 Z M98.5844287,197.383215 L98.5844287,178.475228 L107.128413,197.383215 L114.408493,197.383215 L104.853387,177.059656 L114.408493,158 L107.077856,158 L98.5844287,175.644085 L98.5844287,158 L91.5065723,158 L91.5065723,197.383215 L98.5844287,197.383215 Z M157.583418,197.383215 L157.583418,192.074823 L140.697674,192.074823 L140.697674,179.890799 L155.561173,179.890799 L155.561173,174.582406 L140.697674,174.582406 L140.697674,163.308392 L157.583418,163.308392 L157.583418,158 L133.619818,158 L133.619818,197.383215 L157.583418,197.383215 Z M179.373104,197.383215 L179.373104,192.074823 L168.705763,192.074823 L168.705763,158 L161.627907,158 L161.627907,197.383215 L179.373104,197.383215 Z M207.381193,197.383215 L207.381193,192.074823 L190.49545,192.074823 L190.49545,179.890799 L205.358948,179.890799 L205.358948,174.582406 L190.49545,174.582406 L190.49545,163.308392 L207.381193,163.308392 L207.381193,158 L183.417594,158 L183.417594,197.383215 L207.381193,197.383215 Z M235.54095,197.383215 L235.54095,192.074823 L218.503539,192.074823 L218.503539,163.308392 L235.54095,163.308392 L235.54095,158 L211.425683,158 L211.425683,197.383215 L235.54095,197.383215 Z M254.853387,197.383215 L254.853387,163.308392 L263.094034,163.308392 L263.094034,158 L239.58544,158 L239.58544,163.308392 L247.775531,163.308392 L247.775531,197.383215 L254.853387,197.383215 Z M274.21638,197.383215 L274.21638,179.890799 L280.940344,179.890799 L285.844287,197.383215 L293.174924,197.383215 L288.270981,179.890799 L292.012133,179.890799 L292.012133,158 L267.138524,158 L267.138524,197.383215 L274.21638,197.383215 Z M284.934277,174.582406 L274.21638,174.582406 L274.21638,163.308392 L284.934277,163.308392 L284.934277,174.582406 Z M322.497472,197.383215 L322.497472,158 L297.219414,158 L297.219414,197.383215 L322.497472,197.383215 Z M315.419616,192.074823 L304.29727,192.074823 L304.29727,163.308392 L315.419616,163.308392 L315.419616,192.074823 Z M333.923155,197.383215 L333.923155,166.695652 L344.944388,197.383215 L354.347826,197.383215 L354.347826,158 L347.472194,158 L347.472194,188.535895 L336.450961,158 L327.047523,158 L327.047523,197.383215 L333.923155,197.383215 Z M371.840243,197.383215 L371.840243,192.074823 L368.655207,192.074823 L368.655207,163.308392 L371.840243,163.308392 L371.840243,158 L358.392315,158 L358.392315,163.308392 L361.577351,163.308392 L361.577351,192.074823 L358.392315,192.074823 L358.392315,197.383215 L371.840243,197.383215 Z M400,197.383215 L400,192.074823 L382.962588,192.074823 L382.962588,163.308392 L400,163.308392 L400,158 L375.884732,158 L375.884732,197.383215 L400,197.383215 Z" id="AOOKELECTRONIC备份" fill="#FFFFFF" fill-rule="nonzero"></path>
                <g id="编组-2备份" transform="translate(49.000000, 0.000000)">
                    <g filter="url(#filter-1)" id="编组">
                        <g transform="translate(143.164179, 34.141791)">
                            <path d="M43.2496608,0 L43.2496608,54.6981004 L0,54.6981004 L0,0 L43.2496608,0 Z M38.1614654,5.08819539 L5.08819539,5.08819539 L5.08819539,49.609905 L38.1614654,49.609905 L38.1614654,5.08819539 Z" id="形状结合" fill="#FFFFFF" fill-rule="nonzero"></path>
                            <polygon id="路径备份-3" fill="#FFFFFF" fill-rule="nonzero" points="66.14654 54.6981004 66.14654 28.9751731 97.0178766 54.6981004 98.0395162 48.8700457 71.4082163 26.4713528 104.752753 0 97.0178766 0 66.14654 23.8393982 66.14654 0 61.0583446 0 61.0583446 54.6981004"></polygon>
                            <circle id="椭圆形" stroke="#FFFFFF" stroke-width="4" cx="102.399932" cy="51.5179783" r="7.54036635"></circle>
                        </g>
                    </g>
                    <g id="编组备份" transform="translate(42.455224, 66.992537) scale(-1, 1) translate(-42.455224, -66.992537) translate(0.955224, 18.992537)">
                        <g id="编组-7" transform="translate(0.931355, 0.309287)" fill="#FFFFFF" fill-rule="nonzero">
                            <path d="M56.8211324,0.698175844 L65.0238693,1.02011892 L8.64975722,41.6981758 L58.0238693,77.1850467 L55.6234663,81.6981758 L0.0238693063,41.7368351 L56.8211324,0.698175844 Z" id="形状结合"></path>
                        </g>
                        <circle id="椭圆形" stroke="#C92B31" stroke-width="4" cx="68.9626866" cy="82" r="11.9925373"></circle>
                    </g>
                    <polyline id="路径" stroke="#FFFFFF" stroke-width="5" points="110.747537 13.9925373 300.661576 13.9925373 300.661576 112.490452 98.6567164 112.490452"></polyline>
                    <path d="M98.9477612,2 C102.259409,2 105.257543,3.34231046 107.427766,5.51253286 C109.597988,7.68275525 110.940299,10.6808896 110.940299,13.9925373 C110.940299,17.304185 109.597988,20.3023194 107.427766,22.4725418 C105.257543,24.6427642 102.259409,25.9850746 98.9477612,25.9850746 C95.6361135,25.9850746 92.6379791,24.6427642 90.4677567,22.4725418 C88.2975343,20.3023194 86.9552239,17.304185 86.9552239,13.9925373 C86.9552239,10.6808896 88.2975343,7.68275525 90.4677567,5.51253286 C92.6379791,3.34231046 95.6361135,2 98.9477612,2 Z" id="椭圆形备份" stroke="#C92B31" stroke-width="4"></path>
                </g>
            </g>
        </g>
    </g>
</svg>
